<?xml version="1.0" encoding="UTF-8"?>
<svg width="35px" height="34px" viewBox="0 0 35 34" version="1.1" xmlns="http://www.w3.org/2000/svg" xmlns:xlink="http://www.w3.org/1999/xlink">
    <!-- Generator: Sketch 46.2 (44496) - http://www.bohemiancoding.com/sketch -->
    <title>Group 2</title>
    <desc>Created with Sketch.</desc>
    <defs></defs>
    <g id="INDUSTRY-PAGES" stroke="none" stroke-width="1" fill="none" fill-rule="evenodd">
        <g id="7D.2---NEWSLETTERS" transform="translate(-1081.000000, -860.000000)" stroke="#FFFFFF" stroke-width="1.8" fill="#000000" fill-rule="nonzero">
            <g id="NEWSLETTER-1" transform="translate(82.000000, 809.000000)">
                <g id="Group-2" transform="translate(1000.000000, 52.000000)">
                    <path d="M3.48837209,32 L29.5116279,32 C31.4651163,32 33,30.5333333 33,28.6666667 L33,25 C33,23.8666667 32.0930233,23 30.9069767,23 C29.7209302,23 28.8139535,23.8666667 28.8139535,25 L28.8139535,28 L4.18604651,28 L4.18604651,25 C4.18604651,23.8666667 3.27906977,23 2.09302326,23 C0.906976744,23 0,23.8666667 0,25 L0,28.6666667 C0,30.5333333 1.53488372,32 3.48837209,32 Z" id="Shape"></path>
                    <path d="M17.5,0 C16.2857143,0 15.3571429,0.903323263 15.3571429,2.08459215 L15.3571429,15.9123867 L11.6428571,12.2990937 C10.7857143,11.4652568 9.42857143,11.4652568 8.64285714,12.2990937 C7.78571429,13.1329305 7.78571429,14.4531722 8.64285714,15.2175227 L16,22.3746224 C16.2142857,22.5830816 16.4285714,22.7220544 16.7142857,22.8610272 C17,23 17.2142857,23 17.5,23 C17.7857143,23 18.0714286,22.9305136 18.2857143,22.8610272 C18.5,22.7915408 18.7857143,22.5830816 19,22.3746224 L26.3571429,15.2175227 C27.2142857,14.3836858 27.2142857,13.0634441 26.3571429,12.2990937 C25.5,11.4652568 24.1428571,11.4652568 23.3571429,12.2990937 L19.6428571,15.9123867 L19.6428571,2.08459215 C19.6428571,0.903323263 18.7142857,0 17.5,0 Z" id="Shape"></path>
                </g>
            </g>
        </g>
    </g>
</svg>